<svg width="40" height="40" viewBox="0 0 40 40" fill="none" xmlns="http://www.w3.org/2000/svg">
<path d="M34.6521 19.4666L21.0817 8.27183C20.4538 7.75363 19.547 7.75363 18.9189 8.27183L5.3486 19.4666C4.95706 19.7895 4.73047 20.2701 4.73047 20.7774V37.6682C4.73047 38.607 5.49112 39.3676 6.42988 39.3676H33.5703C34.5091 39.3676 35.2697 38.607 35.2697 37.6682V20.7774C35.2702 20.2701 35.0436 19.7895 34.6521 19.4666ZM21.7973 35.9688H18.2036V26.56H21.7971V35.9688H21.7973ZM31.8714 35.9688H25.1961V24.8606C25.1961 23.9218 24.4354 23.1611 23.4967 23.1611H16.5042C15.5654 23.1611 14.8048 23.9218 14.8048 24.8606V35.9688H8.12951V21.5787L20.0004 11.7858L31.8714 21.5787V35.9688Z" fill="url(#paint0_linear_324_165)"/>
<path d="M39.3628 16.0574C35.5774 13.0252 32.0082 10.1258 28.1329 6.93474C26.9752 5.89448 25.7585 4.9095 24.5811 3.95647C23.4285 3.02338 22.2364 2.05835 21.1367 1.06861C20.4901 0.486733 19.5094 0.486733 18.8629 1.06861C17.7631 2.05835 16.5712 3.02338 15.4186 3.95647C14.2415 4.90927 13.0247 5.89448 11.8668 6.93474C7.99171 10.126 4.42249 13.0252 0.637118 16.0574C-0.0954402 16.644 -0.213719 17.7137 0.373143 18.4461C0.959779 19.1784 2.02973 19.2969 2.76183 18.7101C6.56896 15.6609 10.1577 12.7454 14.0561 9.53484C14.0754 9.5192 14.0942 9.50289 14.1128 9.48612C15.2126 8.49638 16.4045 7.53135 17.5571 6.59826C18.3635 5.94569 19.1883 5.27793 20 4.58774C20.8116 5.27793 21.6366 5.94569 22.4428 6.59826C23.5955 7.53135 24.7875 8.49638 25.8872 9.48612C25.9057 9.50289 25.9245 9.5192 25.9438 9.53484C29.842 12.7454 33.4309 15.6609 37.2381 18.7101C37.5517 18.9611 37.9267 19.083 38.2994 19.083C38.7975 19.083 39.2912 18.865 39.6268 18.4459C40.2136 17.7137 40.0954 16.644 39.3628 16.0574Z" fill="url(#paint1_linear_324_165)"/>
<defs>
<linearGradient id="paint0_linear_324_165" x1="4.73047" y1="26.0639" x2="42.5234" y2="26.4225" gradientUnits="userSpaceOnUse">
<stop stop-color="#F01B24"/>
<stop offset="1" stop-color="#8D0E1B"/>
</linearGradient>
<linearGradient id="paint1_linear_324_165" x1="-1.34677e-07" y1="11.2867" x2="49.4828" y2="12.336" gradientUnits="userSpaceOnUse">
<stop stop-color="#F01B24"/>
<stop offset="1" stop-color="#8D0E1B"/>
</linearGradient>
</defs>
</svg>
