<svg width="58" height="58" viewBox="0 0 58 58" fill="none" xmlns="http://www.w3.org/2000/svg">
<path d="M24.2859 37.2671L39.4064 16.7836C39.907 16.1055 40.8329 15.9039 41.5701 16.3125C42.2336 16.6803 42.559 17.4396 42.3917 18.1593L42.3175 18.3972L32.9648 42.0781C31.9498 44.648 29.0437 45.9086 26.4737 44.8936C26.272 44.8139 26.0757 44.7212 25.886 44.6161C23.4687 43.2761 22.5953 40.2303 23.9352 37.813L24.1017 37.5343L24.2859 37.2671L39.4064 16.7836L24.2859 37.2671ZM44.9732 17.9171C46.7967 19.3944 48.4471 21.1478 49.8602 23.166C51.1278 24.9763 52.3483 27.1682 53.0502 28.962C53.4149 29.8942 52.9549 30.9456 52.0228 31.3104C51.0906 31.6751 50.0392 31.2151 49.6744 30.283C49.4393 29.6821 49.1255 29.0113 48.7627 28.3211L43.8097 31.1807C42.9428 31.6812 41.8343 31.3842 41.3338 30.5172C40.875 29.7226 41.0863 28.7249 41.7925 28.1786L41.9972 28.0413L46.8746 25.2214L46.3178 24.4632C45.5351 23.4421 44.6788 22.5071 43.7616 21.6607L44.6803 19.3303C44.7719 19.0985 44.8416 18.8629 44.8902 18.626L44.9475 18.2699L44.9732 17.9171ZM38.6209 14.1441C38.2607 14.3533 37.9287 14.6193 37.6383 14.9382L37.3623 15.2747L36.055 17.046C34.359 16.4564 32.5979 16.075 30.8133 15.9091L30.8127 22.3684C30.8127 23.3694 30.0012 24.1809 29.0002 24.1809C28.0826 24.1809 27.3243 23.4991 27.2043 22.6144L27.1877 22.3684L27.1868 15.8693C23.3282 16.1437 19.4919 17.4345 16.0926 19.8147C14.1207 21.1954 12.4014 23.0101 10.9723 25.1427L16.0043 28.0478C16.8712 28.5483 17.1682 29.6568 16.6677 30.5237C16.2089 31.3183 15.2392 31.6342 14.4131 31.2957L14.1918 31.1871L9.17917 28.2944C8.8704 28.9378 8.58368 29.6001 8.31975 30.2791C7.9571 31.2121 6.90676 31.6745 5.97374 31.3119C5.04072 30.9492 4.57835 29.8989 4.94099 28.9659C6.88991 23.9517 9.96594 19.6793 14.0133 16.8453C21.4854 11.6133 30.7714 10.9039 38.6209 14.1441Z" fill="url(#paint0_linear_323_124)"/>
<defs>
<linearGradient id="paint0_linear_323_124" x1="4" y1="31" x2="67" y2="30.5" gradientUnits="userSpaceOnUse">
<stop stop-color="#F01B24"/>
<stop offset="1" stop-color="#8D0E1B"/>
</linearGradient>
</defs>
</svg>
