<svg width="21" height="21" viewBox="0 0 21 21" fill="none" xmlns="http://www.w3.org/2000/svg">
<g clip-path="url(#clip0_668_38)">
<path d="M3.76181 19.4906C3.65944 20.0734 4.23431 20.5288 4.74094 20.2689L10.5028 17.3079L16.2634 20.2689C16.77 20.5288 17.3449 20.0734 17.2425 19.4919L16.1531 13.2838L20.7757 8.87907C21.2089 8.46694 20.9857 7.71357 20.4056 7.63219L13.977 6.71869L11.1105 1.03951C11.0559 0.924385 10.9697 0.827121 10.8621 0.759015C10.7544 0.690908 10.6296 0.654755 10.5022 0.654755C10.3747 0.654755 10.2499 0.690908 10.1423 0.759015C10.0346 0.827121 9.94842 0.924385 9.89381 1.03951L7.02731 6.72001L0.598686 7.63351C0.0198732 7.71488 -0.204564 8.46826 0.227248 8.88038L4.85119 13.2851L3.76181 19.4933V19.4906ZM10.1996 15.8589L5.36175 18.3448L6.27262 13.1513C6.29396 13.0317 6.28561 12.9087 6.24831 12.7932C6.21101 12.6776 6.14589 12.573 6.05869 12.4884L2.24456 8.85282L7.56281 8.09682C7.67294 8.08019 7.77739 8.03711 7.86722 7.97128C7.95706 7.90545 8.02959 7.81882 8.07862 7.71882L10.5002 2.91769L12.9244 7.71882C12.9734 7.81882 13.0459 7.90545 13.1358 7.97128C13.2256 8.03711 13.3301 8.08019 13.4402 8.09682L18.7584 8.85151L14.9443 12.4871C14.8569 12.5718 14.7917 12.6766 14.7544 12.7925C14.717 12.9083 14.7088 13.0315 14.7304 13.1513L15.6412 18.3448L10.8034 15.8589C10.7098 15.8107 10.6061 15.7855 10.5008 15.7855C10.3956 15.7855 10.2919 15.8107 10.1983 15.8589H10.1996Z" fill="black"/>
</g>
<defs>
<clipPath id="clip0_668_38">
<rect width="21" height="21" fill="white"/>
</clipPath>
</defs>
</svg>
