<svg width="21" height="21" viewBox="0 0 21 21" fill="none" xmlns="http://www.w3.org/2000/svg">
<g clip-path="url(#clip0_668_42)">
<path d="M7.0268 6.71869L9.8933 1.0395C9.94836 0.925252 10.0344 0.828756 10.1416 0.761C10.2488 0.693244 10.3729 0.65695 10.4997 0.65625C10.7399 0.65625 10.9801 0.783563 11.11 1.0395L13.9765 6.71869L20.4051 7.63219C20.5654 7.65738 20.712 7.73707 20.8203 7.85782C20.9286 7.97856 20.992 8.13297 20.9997 8.295C21.0088 8.40287 20.9935 8.51141 20.9549 8.61254C20.9163 8.71367 20.8553 8.80478 20.7766 8.87906L16.1526 13.2838L17.242 19.4919C17.3444 20.0734 16.7695 20.5288 16.2629 20.2689L10.4997 17.3079L4.73912 20.2689C4.67886 20.3002 4.61427 20.3223 4.54749 20.3346C4.09862 20.4133 3.67074 20.0012 3.75999 19.4919L4.84937 13.2838L0.226741 8.87906C0.154876 8.81107 0.0977529 8.72904 0.0589184 8.63805C0.0200839 8.54706 0.000366779 8.44905 0.00099093 8.35012C0.0010592 8.21026 0.039659 8.07312 0.112553 7.95375C0.164264 7.86722 0.234746 7.7934 0.318797 7.73774C0.402848 7.68209 0.498324 7.64601 0.598178 7.63219L7.0268 6.71869V6.71869ZM10.4997 15.7854C10.6056 15.785 10.7101 15.8102 10.8042 15.8589L15.6421 18.3448L14.7312 13.1513C14.7097 13.0318 14.7178 12.9089 14.7549 12.7933C14.792 12.6778 14.8568 12.5731 14.9438 12.4884L18.7592 8.85281L13.441 8.09681C13.3309 8.08018 13.2264 8.03711 13.1366 7.97127C13.0467 7.90544 12.9742 7.81881 12.9252 7.71881L10.501 2.91769L10.4997 2.92163V15.7841V15.7854Z" fill="black"/>
</g>
<defs>
<clipPath id="clip0_668_42">
<rect width="21" height="21" fill="white"/>
</clipPath>
</defs>
</svg>
